<svg width="139" height="24" viewBox="0 0 139 24" fill="none" xmlns="http://www.w3.org/2000/svg">
<g clip-path="url(#clip0_47_689)">
<path fill-rule="evenodd" clip-rule="evenodd" d="M13.08 17.8H10.92C10.5494 19.6258 8.93517 21 7 21C4.79086 21 3 19.2091 3 17C3 14.7909 4.79086 13 7 13C7.70807 13 8.37317 13.184 8.95011 13.5067L13.5067 8.95011C13.3089 8.59641 13.1632 8.20957 13.08 7.8H10.92C10.5494 9.62579 8.93517 11 7 11C4.79086 11 3 9.20914 3 7C3 4.79086 4.79086 3 7 3C8.93517 3 10.5494 4.37421 10.92 6.2H13.08C13.4506 4.37421 15.0648 3 17 3C19.2091 3 21 4.79086 21 7C21 9.20914 19.2091 11 17 11C16.0788 11 15.2304 10.6886 14.5542 10.1654L10.1654 14.5542C10.533 15.0293 10.796 15.5894 10.92 16.2H13.08C13.4506 14.3742 15.0648 13 17 13C19.2091 13 21 14.7909 21 17C21 19.2091 19.2091 21 17 21C15.0648 21 13.4506 19.6258 13.08 17.8ZM7 9.4C8.32548 9.4 9.4 8.32548 9.4 7C9.4 5.67452 8.32548 4.6 7 4.6C5.67452 4.6 4.6 5.67452 4.6 7C4.6 8.32548 5.67452 9.4 7 9.4ZM17 9.4C18.3255 9.4 19.4 8.32548 19.4 7C19.4 5.67452 18.3255 4.6 17 4.6C15.6745 4.6 14.6 5.67452 14.6 7C14.6 8.32548 15.6745 9.4 17 9.4ZM17 19.4C18.3255 19.4 19.4 18.3255 19.4 17C19.4 15.6745 18.3255 14.6 17 14.6C15.6745 14.6 14.6 15.6745 14.6 17C14.6 18.3255 15.6745 19.4 17 19.4Z" fill="white"/>
</g>
<path d="M42.32 14.2C42.1067 14.84 41.7867 15.384 41.36 15.832C40.9333 16.2693 40.432 16.6 39.856 16.824C39.28 17.048 38.6453 17.16 37.952 17.16C36.9387 17.16 36.0587 16.9413 35.312 16.504C34.5653 16.0667 33.9893 15.4427 33.584 14.632C33.1787 13.8213 32.976 12.8507 32.976 11.72C32.976 10.5893 33.1787 9.61867 33.584 8.808C33.9893 7.99733 34.5653 7.37333 35.312 6.936C36.0587 6.49867 36.9333 6.28 37.936 6.28C38.6293 6.28 39.2533 6.376 39.808 6.568C40.3733 6.76 40.8533 7.048 41.248 7.432C41.6427 7.816 41.9467 8.296 42.16 8.872L40.544 9.592C40.3307 8.96267 40.0213 8.504 39.616 8.216C39.2107 7.91733 38.6827 7.768 38.032 7.768C37.3813 7.768 36.8107 7.92267 36.32 8.232C35.8293 8.54133 35.4453 8.98933 35.168 9.576C34.9013 10.1627 34.768 10.8773 34.768 11.72C34.768 12.552 34.896 13.2667 35.152 13.864C35.408 14.4507 35.776 14.8987 36.256 15.208C36.736 15.5173 37.312 15.672 37.984 15.672C38.6347 15.672 39.1947 15.5067 39.664 15.176C40.144 14.8347 40.4853 14.328 40.688 13.656L42.32 14.2ZM53.2735 17H51.4655L50.4575 14.232H46.0255L45.0175 17H43.2575L47.2415 6.44H49.2895L53.2735 17ZM46.5055 12.84H49.9775L48.2495 7.912L46.5055 12.84ZM58.6368 6.28C59.5861 6.28 60.4074 6.46133 61.1008 6.824C61.7941 7.176 62.3808 7.69867 62.8608 8.392L61.7088 9.496C61.3034 8.87733 60.8448 8.43467 60.3328 8.168C59.8314 7.89067 59.2341 7.752 58.5408 7.752C58.0288 7.752 57.6074 7.82133 57.2768 7.96C56.9461 8.09867 56.7008 8.28533 56.5408 8.52C56.3914 8.744 56.3168 9 56.3168 9.288C56.3168 9.61867 56.4288 9.90667 56.6528 10.152C56.8874 10.3973 57.3194 10.5893 57.9488 10.728L60.0928 11.208C61.1168 11.432 61.8421 11.7733 62.2688 12.232C62.6954 12.6907 62.9088 13.272 62.9088 13.976C62.9088 14.6267 62.7328 15.192 62.3808 15.672C62.0288 16.152 61.5381 16.52 60.9088 16.776C60.2901 17.032 59.5594 17.16 58.7168 17.16C57.9701 17.16 57.2981 17.064 56.7008 16.872C56.1034 16.68 55.5808 16.4187 55.1328 16.088C54.6848 15.7573 54.3168 15.3787 54.0288 14.952L55.2128 13.768C55.4368 14.1413 55.7194 14.4773 56.0608 14.776C56.4021 15.064 56.7968 15.288 57.2448 15.448C57.7034 15.608 58.2101 15.688 58.7648 15.688C59.2554 15.688 59.6768 15.6293 60.0288 15.512C60.3914 15.3947 60.6634 15.224 60.8448 15C61.0368 14.7653 61.1328 14.488 61.1328 14.168C61.1328 13.8587 61.0261 13.5867 60.8128 13.352C60.6101 13.1173 60.2261 12.936 59.6608 12.808L57.3408 12.28C56.7008 12.1413 56.1728 11.944 55.7568 11.688C55.3408 11.432 55.0314 11.1227 54.8288 10.76C54.6261 10.3867 54.5247 9.97067 54.5247 9.512C54.5247 8.91467 54.6848 8.376 55.0048 7.896C55.3354 7.40533 55.8101 7.016 56.4288 6.728C57.0474 6.42933 57.7834 6.28 58.6368 6.28ZM72.7678 6.44V7.912H69.1518V17H67.4398V7.912H63.8238V6.44H72.7678ZM81.3425 6.44V17H79.6305V6.44H81.3425ZM84.1718 17V9H85.6918L85.7718 10.344C86.0491 9.832 86.4171 9.45333 86.8758 9.208C87.3451 8.96267 87.8411 8.84 88.3638 8.84C88.9398 8.84 89.4678 8.97333 89.9478 9.24C90.4384 9.496 90.8064 9.88533 91.0518 10.408C91.2224 10.056 91.4571 9.76267 91.7558 9.528C92.0544 9.29333 92.3851 9.12267 92.7478 9.016C93.1104 8.89867 93.4678 8.84 93.8198 8.84C94.3318 8.84 94.8118 8.94667 95.2598 9.16C95.7078 9.37333 96.0704 9.69867 96.3478 10.136C96.6251 10.5733 96.7638 11.1333 96.7638 11.816V17H95.0518V12.088C95.0518 11.4373 94.8971 10.968 94.5878 10.68C94.2784 10.392 93.8838 10.248 93.4038 10.248C93.0304 10.248 92.6838 10.3387 92.3638 10.52C92.0544 10.7013 91.8038 10.9733 91.6118 11.336C91.4198 11.688 91.3238 12.1253 91.3238 12.648V17H89.6118V12.088C89.6118 11.4373 89.4571 10.968 89.1478 10.68C88.8384 10.392 88.4438 10.248 87.9638 10.248C87.6438 10.248 87.3238 10.3333 87.0038 10.504C86.6838 10.6747 86.4171 10.9413 86.2038 11.304C85.9904 11.6667 85.8838 12.1467 85.8838 12.744V17H84.1718ZM103.983 11.864C103.983 11.3307 103.834 10.92 103.535 10.632C103.247 10.3333 102.847 10.184 102.335 10.184C101.855 10.184 101.445 10.296 101.103 10.52C100.762 10.744 100.511 11.1067 100.351 11.608L98.9113 11C99.1139 10.3493 99.5086 9.82667 100.095 9.432C100.693 9.03733 101.461 8.84 102.399 8.84C103.039 8.84 103.605 8.94667 104.095 9.16C104.586 9.36267 104.97 9.672 105.247 10.088C105.535 10.504 105.679 11.0373 105.679 11.688V15.256C105.679 15.6507 105.877 15.848 106.271 15.848C106.463 15.848 106.65 15.8213 106.831 15.768L106.735 16.952C106.49 17.0693 106.181 17.128 105.807 17.128C105.466 17.128 105.157 17.0693 104.879 16.952C104.613 16.824 104.399 16.6373 104.239 16.392C104.09 16.136 104.015 15.8213 104.015 15.448V15.336L104.367 15.32C104.271 15.736 104.074 16.0827 103.775 16.36C103.477 16.6267 103.13 16.8293 102.735 16.968C102.341 17.096 101.941 17.16 101.535 17.16C101.034 17.16 100.581 17.08 100.175 16.92C99.7806 16.76 99.4659 16.52 99.2313 16.2C99.0073 15.8693 98.8953 15.464 98.8953 14.984C98.8953 14.3867 99.0873 13.896 99.4713 13.512C99.8659 13.128 100.421 12.8667 101.135 12.728L104.239 12.12L104.223 13.32L101.967 13.784C101.519 13.8693 101.183 13.992 100.959 14.152C100.735 14.312 100.623 14.5467 100.623 14.856C100.623 15.1547 100.735 15.3947 100.959 15.576C101.194 15.7467 101.503 15.832 101.887 15.832C102.154 15.832 102.41 15.8 102.655 15.736C102.911 15.672 103.141 15.5707 103.343 15.432C103.546 15.2827 103.701 15.096 103.807 14.872C103.925 14.6373 103.983 14.36 103.983 14.04V11.864ZM115.556 7.32L115.828 8.664C115.796 8.664 115.764 8.664 115.732 8.664C115.7 8.65333 115.668 8.648 115.635 8.648C115.124 8.648 114.734 8.76 114.468 8.984C114.201 9.19733 114.068 9.512 114.068 9.928L113.236 9.544C113.236 9.11733 113.326 8.73867 113.508 8.408C113.689 8.06667 113.945 7.8 114.276 7.608C114.617 7.416 115.001 7.32 115.428 7.32C115.449 7.32 115.47 7.32 115.492 7.32C115.513 7.32 115.534 7.32 115.556 7.32ZM113.028 15.752C113.838 15.752 114.468 15.9333 114.916 16.296C115.364 16.648 115.588 17.1387 115.588 17.768C115.588 18.3227 115.412 18.7973 115.06 19.192C114.708 19.5973 114.228 19.9067 113.62 20.12C113.022 20.3333 112.334 20.44 111.556 20.44C110.244 20.44 109.273 20.2373 108.644 19.832C108.014 19.4267 107.7 18.92 107.7 18.312C107.7 17.8853 107.849 17.512 108.148 17.192C108.457 16.872 108.974 16.6907 109.7 16.648L109.604 16.904C109.156 16.808 108.793 16.6373 108.516 16.392C108.249 16.136 108.116 15.7787 108.116 15.32C108.116 14.8613 108.292 14.472 108.644 14.152C108.996 13.832 109.492 13.6453 110.132 13.592L111.028 14.024H110.836C110.345 14.0667 109.998 14.1787 109.796 14.36C109.593 14.5413 109.492 14.744 109.492 14.968C109.492 15.2347 109.588 15.432 109.78 15.56C109.982 15.688 110.265 15.752 110.628 15.752H113.028ZM111.556 19.16C112.142 19.16 112.622 19.1013 112.996 18.984C113.38 18.8773 113.662 18.7333 113.844 18.552C114.036 18.3813 114.132 18.1893 114.132 17.976C114.132 17.7307 114.03 17.5333 113.828 17.384C113.636 17.2347 113.284 17.16 112.772 17.16H110.196C109.897 17.16 109.646 17.2347 109.444 17.384C109.241 17.544 109.14 17.7573 109.14 18.024C109.14 18.376 109.353 18.6533 109.78 18.856C110.206 19.0587 110.798 19.16 111.556 19.16ZM111.492 8.84C112.196 8.84 112.804 8.952 113.316 9.176C113.838 9.4 114.238 9.71467 114.516 10.12C114.804 10.5253 114.948 11 114.948 11.544C114.948 12.088 114.804 12.5627 114.516 12.968C114.238 13.3733 113.838 13.688 113.316 13.912C112.804 14.136 112.196 14.248 111.492 14.248C110.382 14.248 109.529 14.0027 108.932 13.512C108.345 13.0107 108.052 12.3547 108.052 11.544C108.052 11 108.196 10.5253 108.484 10.12C108.772 9.71467 109.172 9.4 109.684 9.176C110.206 8.952 110.809 8.84 111.492 8.84ZM111.492 10.04C111.001 10.04 110.59 10.1787 110.26 10.456C109.94 10.7227 109.78 11.0853 109.78 11.544C109.78 12.0027 109.94 12.3707 110.26 12.648C110.59 12.9253 111.001 13.064 111.492 13.064C111.993 13.064 112.404 12.9253 112.724 12.648C113.054 12.3707 113.22 12.0027 113.22 11.544C113.22 11.0853 113.054 10.7227 112.724 10.456C112.404 10.1787 111.993 10.04 111.492 10.04ZM118.02 7.656C117.647 7.656 117.359 7.56533 117.156 7.384C116.964 7.192 116.868 6.92533 116.868 6.584C116.868 6.24267 116.964 5.98133 117.156 5.8C117.359 5.61867 117.647 5.528 118.02 5.528C118.383 5.528 118.66 5.61867 118.852 5.8C119.055 5.98133 119.156 6.24267 119.156 6.584C119.156 6.92533 119.055 7.192 118.852 7.384C118.66 7.56533 118.383 7.656 118.02 7.656ZM118.868 9V17H117.156V9H118.868ZM121.547 17V9H123.067L123.179 11.08L122.955 10.856C123.104 10.3973 123.317 10.0187 123.595 9.72C123.883 9.41067 124.219 9.18667 124.603 9.048C124.997 8.90933 125.413 8.84 125.851 8.84C126.416 8.84 126.923 8.952 127.371 9.176C127.829 9.38933 128.192 9.71467 128.459 10.152C128.725 10.5893 128.859 11.144 128.859 11.816V17H127.147V12.344C127.147 11.5547 126.981 11.0107 126.651 10.712C126.331 10.4027 125.925 10.248 125.435 10.248C125.083 10.248 124.741 10.3333 124.411 10.504C124.08 10.664 123.803 10.9253 123.579 11.288C123.365 11.6507 123.259 12.136 123.259 12.744V17H121.547ZM138.493 7.32L138.765 8.664C138.733 8.664 138.701 8.664 138.669 8.664C138.637 8.65333 138.605 8.648 138.573 8.648C138.061 8.648 137.672 8.76 137.405 8.984C137.138 9.19733 137.005 9.512 137.005 9.928L136.173 9.544C136.173 9.11733 136.264 8.73867 136.445 8.408C136.626 8.06667 136.882 7.8 137.213 7.608C137.554 7.416 137.938 7.32 138.365 7.32C138.386 7.32 138.408 7.32 138.429 7.32C138.45 7.32 138.472 7.32 138.493 7.32ZM135.965 15.752C136.776 15.752 137.405 15.9333 137.853 16.296C138.301 16.648 138.525 17.1387 138.525 17.768C138.525 18.3227 138.349 18.7973 137.997 19.192C137.645 19.5973 137.165 19.9067 136.557 20.12C135.96 20.3333 135.272 20.44 134.493 20.44C133.181 20.44 132.21 20.2373 131.581 19.832C130.952 19.4267 130.637 18.92 130.637 18.312C130.637 17.8853 130.786 17.512 131.085 17.192C131.394 16.872 131.912 16.6907 132.637 16.648L132.541 16.904C132.093 16.808 131.73 16.6373 131.453 16.392C131.186 16.136 131.053 15.7787 131.053 15.32C131.053 14.8613 131.229 14.472 131.581 14.152C131.933 13.832 132.429 13.6453 133.069 13.592L133.965 14.024H133.773C133.282 14.0667 132.936 14.1787 132.733 14.36C132.53 14.5413 132.429 14.744 132.429 14.968C132.429 15.2347 132.525 15.432 132.717 15.56C132.92 15.688 133.202 15.752 133.565 15.752H135.965ZM134.493 19.16C135.08 19.16 135.56 19.1013 135.933 18.984C136.317 18.8773 136.6 18.7333 136.781 18.552C136.973 18.3813 137.069 18.1893 137.069 17.976C137.069 17.7307 136.968 17.5333 136.765 17.384C136.573 17.2347 136.221 17.16 135.709 17.16H133.133C132.834 17.16 132.584 17.2347 132.381 17.384C132.178 17.544 132.077 17.7573 132.077 18.024C132.077 18.376 132.29 18.6533 132.717 18.856C133.144 19.0587 133.736 19.16 134.493 19.16ZM134.429 8.84C135.133 8.84 135.741 8.952 136.253 9.176C136.776 9.4 137.176 9.71467 137.453 10.12C137.741 10.5253 137.885 11 137.885 11.544C137.885 12.088 137.741 12.5627 137.453 12.968C137.176 13.3733 136.776 13.688 136.253 13.912C135.741 14.136 135.133 14.248 134.429 14.248C133.32 14.248 132.466 14.0027 131.869 13.512C131.282 13.0107 130.989 12.3547 130.989 11.544C130.989 11 131.133 10.5253 131.421 10.12C131.709 9.71467 132.109 9.4 132.621 9.176C133.144 8.952 133.746 8.84 134.429 8.84ZM134.429 10.04C133.938 10.04 133.528 10.1787 133.197 10.456C132.877 10.7227 132.717 11.0853 132.717 11.544C132.717 12.0027 132.877 12.3707 133.197 12.648C133.528 12.9253 133.938 13.064 134.429 13.064C134.93 13.064 135.341 12.9253 135.661 12.648C135.992 12.3707 136.157 12.0027 136.157 11.544C136.157 11.0853 135.992 10.7227 135.661 10.456C135.341 10.1787 134.93 10.04 134.429 10.04Z" fill="white"/>
<defs>
<clipPath id="clip0_47_689">
<rect width="18" height="18" fill="white" transform="translate(3 3)"/>
</clipPath>
</defs>
</svg>
